<?xml version="1.0" encoding="UTF-8"?>
<svg xmlns="http://www.w3.org/2000/svg"
     version="1.1"
     width="210" height="170"
     viewBox="0 0 210 170">

  <!-- 背景 -->
  <rect x="0" y="0" width="100%" height="100%" fill="white"/>

  <!-- フレーム1: コスチューム
  <?xml version='1.0' encoding='UTF-8'?> -->
  <g id="frame1" opacity="0">
    <g fill="none" stroke="#000000" stroke-width="2" stroke-linecap="round" stroke-miterlimit="10"><path d="M 55.85903999999999,146.15077 C 55.85903999999999,146.15077 49.69979999999998,131.31123 46.84540999999999,116.32172 C 42.952639999999974,95.87928 42.07052999999999,73.5899 42.409749999999974,73.81633 C 42.422859999999986,73.82507999999999 47.090569999999985,116.33928 46.921659999999974,116.11579999999998 C 46.618029999999976,115.71408999999997 51.84061999999997,105.03823999999997 51.678349999999966,105.09014999999997 C 51.268479999999954,105.22124999999997 51.482819999999975,89.20916999999997 55.95037999999997,76.24601999999996 C 60.18486999999996,63.95912999999996 68.67272999999997,54.68927999999997 68.74843999999996,54.65027999999995 C 68.98383999999996,54.52899999999994 58.52320999999995,41.839279999999945 58.71620999999996,41.925239999999945 C 59.119129999999956,42.104679999999945 54.34926999999996,51.01460999999995 50.84779999999995,59.212099999999936 C 48.16727999999995,65.48761999999994 46.60749999999996,71.59721999999994 46.41667999999996,71.54332999999994 C 45.982339999999965,71.42065999999994 46.03899999999996,79.45171999999994 47.279679999999956,85.68569999999994 C 48.88850999999997,93.76950999999994 51.866919999999965,106.26282999999995 51.926469999999966,105.38484999999994 C 52.423299999999955,98.06040999999993 52.66718999999998,84.86972999999995 56.17790999999997,75.45767999999995 C 60.66802999999996,63.419929999999965 69.17755999999997,54.304629999999946 69.05985999999996,54.413839999999965 C 68.43798999999996,54.990849999999966 91.18117999999996,71.32968999999997 91.05272999999997,71.23010999999997 C 90.95850999999996,71.15705999999997 89.53218999999996,69.13589999999996 89.39993999999996,69.16664999999998 C 89.21523999999997,69.20959999999997 95.93178999999995,64.09114999999997 96.13068999999996,63.44432999999998 C 96.28569999999996,62.940229999999985 84.23807999999997,73.34411999999998 76.91245999999995,83.14890999999997 C 70.55899999999994,91.65252999999998 68.81174999999996,99.70550999999998 68.65088999999995,99.80088999999998 C 68.57752999999994,99.84438999999998 73.58118999999994,114.91868 77.83806999999996,120.08786999999998 C 89.74030999999997,134.54092999999997 110.30829999999995,150.29449999999997 109.50109999999995,150.26126999999997 C 109.18485999999996,150.24825999999996 105.25867999999994,148.02486999999996 101.95497999999995,143.55062999999996 C 93.62767999999994,132.27286999999995 81.12042999999994,111.57546999999997 80.50424999999996,111.83592999999996 C 79.60532999999995,112.21590999999995 95.82968999999994,137.20124999999996 95.95089999999996,137.01250999999996 C 96.34881999999996,136.39287999999996 91.26025999999996,120.26126999999997 91.07633999999996,120.32838999999996 C 90.86732999999995,120.40466999999995 92.10473999999996,125.72797999999995 95.72457999999995,130.15175999999997 C 100.81059999999994,136.36733999999996 108.82351999999995,142.28737999999996 108.59690999999995,142.33194999999998 C 108.07930999999996,142.43373999999997 96.35852999999994,132.70238999999998 89.46940999999995,120.95420999999999 C 83.14481999999995,110.16874999999999 81.56121999999996,97.34906999999998 82.03172999999995,96.09007 C 84.69008999999994,88.97681 112.74968999999996,73.70655 112.91787999999994,73.59349 C 113.54018999999994,73.17514 94.47593999999995,83.82874000000001 94.21527999999995,83.67263 C 93.73781999999994,83.38666 106.25441999999995,113.61143999999999 106.26171999999994,113.51354 C 106.30711999999994,112.90450000000001 99.63755999999995,94.4356 99.67008999999993,94.49244000000002 C 107.29237999999992,107.81284000000002 140.6007299999999,139.15215 141.06280999999993,139.04154000000003 C 141.53843999999995,138.92768000000004 113.46998999999994,106.27825000000001 109.56711999999993,98.83451000000002 C 105.94431999999992,91.92495000000002 112.96330999999992,74.35165000000003 112.96576999999994,74.40431000000001 C 113.01943999999995,75.55366000000001 120.45332999999991,67.3612 120.51988999999995,67.43448000000001 C 121.23013999999992,68.21636000000001 112.90426999999994,56.56961000000001 112.51510999999994,56.07769999999999 C 112.31327999999993,55.82257999999999 114.95660999999993,59.226219999999984 118.03392999999994,63.699749999999995 C 120.06457999999995,66.65171999999998 121.94104999999993,70.75586999999999 124.53549999999993,72.13842 C 130.81332999999992,75.48382000000001 141.40961999999993,66.66861 141.4150999999999,66.61124999999998 C 141.5587699999999,65.10661999999999 161.9817199999999,63.30372999999997 161.7704699999999,63.393159999999995 C 160.5367899999999,63.91538 147.17114999999993,55.924800000000005 147.2375499999999,55.86165 C 148.05510999999993,55.08412999999999 144.42049999999992,47.53299999999999 146.2447199999999,45.72612000000001 C 148.19160999999988,43.79775000000001 146.6584899999999,48.072010000000006 147.3368699999999,49.810670000000016 C 147.8617499999999,51.155880000000025 150.8083399999999,49.88536000000002 150.80859999999987,49.95607000000001 C 150.80875999999986,50.00069000000002 160.78919999999985,48.26442 160.7471699999999,48.30588 C 160.28040999999988,48.76623000000001 146.2414499999999,43.58006 146.2265499999999,43.778400000000005 C 146.2042599999999,44.075140000000005 144.07885999999988,40.963089999999994 141.08603999999988,39.08635000000001 C 138.28878999999986,37.33224000000001 134.6953599999999,36.81097 132.4187699999999,36.89793 C 132.36663999999993,36.89992000000001 128.6833899999999,37.11384000000001 127.75427999999991,37.845680000000016 C 126.84027999999992,38.565620000000024 128.68386999999993,39.80728000000002 128.19253999999992,39.37944000000002 C 127.85468999999992,39.085260000000005 136.35121999999993,39.73896000000002 136.2549099999999,39.87932000000001 C 136.04400999999993,40.186679999999996 135.1637799999999,45.917580000000015 135.3557599999999,45.76077000000001 C 135.5382599999999,45.611710000000016 128.4156199999999,46.00776000000002 127.96478999999991,46.17440000000002 C 127.04103999999992,46.51585000000003 128.00527999999989,38.266520000000014 127.74428999999989,38.24644000000001 C 127.29261999999991,38.21168 116.61130999999989,50.821079999999995 116.44965999999988,50.65294 C 116.03907999999987,50.22587999999999 111.01267999999988,47.28295 105.65157999999988,41.52978999999999 C 100.77888999999988,36.30073999999999 95.68254999999988,28.485889999999984 92.51281999999989,23.185270000000003 C 86.4568899999999,13.058180000000007 73.4665499999999,5.143570000000011 64.97457999999989,3.2560000000000002 C 64.60011999999989,3.1727599999999967 66.59587999999988,-0.2233800000000059 64.76134999999988,0.0 C 61.36553999999987,0.41348000000000695 48.85753999999989,6.948800000000006 41.83005999999989,18.267179999999996 C 40.1582699999999,20.959749999999985 36.17041999999989,27.390510000000006 33.52204999999989,34.77223000000001 C 30.337389999999886,43.64873 28.547449999999884,53.6292 27.849599999999896,56.53772000000001 C 26.912269999999893,60.4444 39.3071699999999,27.894990000000007 39.39031999999989,27.872389999999996 C 39.66475999999989,27.797789999999992 33.711219999999884,43.973569999999995 34.1533399999999,44.10332 C 34.2229099999999,43.66278 33.25365999999991,52.54267999999999 32.86524999999989,61.15849 C 32.45654999999988,70.22419 32.62578999999988,79.06263999999999 32.62793999999988,79.13999999999999 C 32.649859999999876,79.92850999999999 31.799029999999874,71.11946999999998 32.08841999999987,61.78712999999999 C 32.36295999999987,52.93337 33.78524999999988,43.547859999999986 33.56671999999986,43.63290000000001 C 32.96689999999987,43.86631 27.47720999999987,60.17517000000001 27.43845999999985,60.17111 C 26.65675999999985,60.08923999999999 24.45042999999984,83.61419000000001 24.726049999999844,86.65865 C 25.838339999999846,98.94487999999998 55.85905999999986,152.53298999999998 55.85905999999986,152.53298999999998"/><path d="M 142.56265,51.50485999999998 L 137.79349,58.81758999999997"/><path d="M 162.56614,90.88253999999998 C 162.56614,90.88253999999998 169.51366,97.88458999999997 170.25298999999998,100.92722999999998 C 170.86864999999997,103.46091999999999 166.69942,107.89257999999998 166.69942,107.89257999999998"/><path d="M 176.39673000000002,102.96443 C 176.39673000000002,102.96443 177.56193000000005,107.33904999999999 176.10819,108.86669999999998 C 174.45996,110.59873999999999 167.01736000000002,112.82072 167.01736000000002,112.82072"/><path d="M 3.1715499999999963,37.05690999999999 C 3.1715499999999963,37.05690999999999 0.8815099999999916,32.989869999999996 0.0,27.93862999999999 C -0.9631100000000004,22.419849999999997 -0.49120999999999526,15.849419999999995 0.37844999999998663,15.178269999999983 C 1.6608299999999758,14.188609999999983 7.817009999999982,26.856149999999985 8.083359999999999,26.74667999999997 C 8.117289999999997,26.73273999999998 6.804570000000012,18.610679999999974 8.778819999999996,18.41371999999997 C 11.520669999999996,18.140179999999972 17.796999999999997,25.769889999999975 17.796999999999997,25.769889999999975"/></g>  
    <animate attributeName="opacity" dur="0.3s" repeatCount="indefinite"
             keyTimes="0;0.2;0.4;0.6;0.8;1"
             values="1;0;0;0;0;1"
             calcMode="discrete"/>
  </g>

  <!-- フレーム2: コスチューム2 -->
  <g id="frame2" opacity="0">
    <g fill="none" stroke="#000000" stroke-width="2" stroke-linecap="round" stroke-miterlimit="10"><path d="M 31.29598999999999,0.0 C 31.29598999999999,0.0 -1.0573700000000201,66.38288 0.0,66.46421999999998 C 0.7692099999999868,66.52338999999998 54.83796000000001,65.51230999999999 54.41039000000001,65.52837 C 54.41039000000001,65.52837 62.388630000000006,72.14716999999999 68.78288,79.72549999999998 C 74.84291000000002,86.90771999999998 79.32551000000001,95.07554999999999 79.71704,94.91056999999998 C 80.00039999999998,94.79115999999999 56.39139,133.95152999999996 56.52036000000001,134.16114 C 61.87738000000002,142.86747 74.31091,138.66575999999998 74.51865000000001,138.71987 C 80.18786,140.19664999999998 99.37659,107.46158 99.40576000000001,107.41404999999997 C 99.75160000000002,106.85058999999998 119.67976000000002,106.08238999999998 119.56158000000002,105.88335999999998 C 119.25033000000005,105.35917999999998 123.93156000000002,98.30779999999999 123.73155,97.87013999999999 C 123.44257999999999,97.23783 111.68548999999999,92.28079 103.03254999999999,90.48472999999998 C 96.28468999999998,89.08409999999998 92.13913,90.67761999999999 92.13021999999998,90.75055999999998 C 92.07999999999998,91.16170999999997 73.59676999999999,125.99597999999997 73.80873999999997,126.11193999999998 C 74.13084999999998,126.28814999999997 78.62343999999996,116.18790999999999 83.33957999999998,106.73672999999997 C 87.43848,98.52251999999996 91.85494999999997,90.79857999999996 91.98406999999997,90.73757999999995 C 100.17735999999996,86.86694999999995 123.74281999999997,98.20571999999996 123.53070999999997,97.95128999999994 C 123.32780999999997,97.70789999999994 112.71559999999997,90.32437999999993 105.19213999999997,79.81773999999993 C 103.69802999999999,77.73118999999994 101.76617999999996,72.77861999999993 99.73275999999996,68.89303999999993 C 98.76277999999996,67.03954999999993 98.47397999999995,64.48981999999992 96.88142999999997,64.36593999999994 C 96.40383999999997,64.32878999999994 92.11329999999995,65.38556999999994 90.37898999999996,63.83436999999995 C 89.59499999999997,63.13315999999995 90.78423999999995,59.964549999999946 90.55116999999996,59.29834999999994 C 89.72378999999995,56.933389999999946 95.09977999999995,58.15715999999995 95.16893999999996,58.17276999999993 C 95.47287999999998,58.24138999999994 98.36315999999997,69.56694999999993 105.10570999999996,79.10156999999992 C 112.40620999999996,89.42516999999992 123.59435999999997,98.01580999999993 123.72453999999996,97.96669999999992 C 123.92281999999997,97.89189999999991 119.39161999999996,105.21762999999993 119.74368999999999,105.26899999999992 C 120.13863999999998,105.32663999999991 145.42344999999997,106.91397999999992 145.08671999999999,107.17701999999991 C 145.03214,107.21965999999992 141.9899,96.79834999999991 134.597,87.83353999999991 C 124.29049,75.33560999999992 108.68262000000001,61.871989999999926 108.88253,61.87989999999991 C 109.55208000000002,61.9063899999999 111.48866000000001,62.8655599999999 111.63345999999999,63.0417699999999 C 112.07807999999997,63.5828599999999 107.45440999999997,66.8918799999999 107.43229999999997,67.0460799999999 C 107.32431999999997,67.7991299999999 124.98294999999999,50.938959999999895 124.80591999999999,50.7675099999999 C 124.41748999999996,50.391319999999894 123.87884,43.33704999999989 123.75778999999997,43.52902999999989 C 123.26525999999998,43.187409999999886 115.15669,44.58695999999989 108.52315999999999,48.153439999999904 C 100.72255999999999,52.347389999999905 94.26361,58.83973999999989 94.35207,58.745489999999904 C 96.70446000000001,56.23906999999991 95.59753,53.42121999999989 97.14975000000001,51.377569999999906 C 98.96913,48.982179999999914 103.41923,47.4232199999999 106.07308000000003,45.27567999999991 C 143.54926000000003,14.949319999999915 177.49399000000003,23.149359999999916 181.25291,19.498989999999907 C 186.15175000000002,14.741629999999901 109.16840000000005,18.08764999999991 73.35772,51.69807999999992 C 68.30256,56.442639999999926 80.13176000000001,37.06113999999991 80.12288000000001,36.14529999999991 C 80.02062000000001,25.5984499999999 68.13323,25.97914999999992 67.64090000000002,26.035339999999906 C 67.36193000000003,26.067179999999894 59.17890000000003,17.958189999999902 59.21043,17.9806099999999 C 59.36753999999999,18.092279999999903 57.49100999999999,20.086249999999893 57.38938999999999,23.381319999999903 C 57.30252999999999,26.1975699999999 59.00368999999998,30.373799999999903 58.94675999999998,30.61059999999989 C 58.711479999999995,31.58918999999989 57.324329999999975,23.55334999999988 57.21804999999998,23.313119999999884 C 56.98080999999996,22.776849999999882 53.82219999999998,23.742659999999887 51.466969999999975,25.89986999999988 C 48.729469999999964,28.40720999999988 46.75729999999999,32.20409999999987 46.712369999999964,32.11596999999989 C 46.32394999999997,31.35423999999989 36.28630999999996,30.474829999999884 36.21498999999997,30.462339999999898 C 35.97868999999997,30.4209799999999 47.30965999999998,53.9120199999999 45.38009999999997,53.20046999999991 C 45.309699999999964,53.17450999999991 60.96303999999998,56.24667999999991 60.68799999999996,56.025789999999915 C 60.57281999999995,55.933289999999914 61.14976999999996,51.277099999999905 61.22458999999995,51.1903299999999 C 61.28379999999996,51.1216499999999 57.25077999999996,49.158759999999916 57.20761999999996,47.089989999999915 C 57.16727999999998,45.15649999999991 61.07920999999996,43.09364999999991 62.12654999999995,43.420459999999906 C 67.53012999999996,45.1065999999999 68.59788999999995,50.33928999999992 60.966519999999946,51.0619999999999 C 60.662129999999934,51.0908299999999 60.871599999999944,56.097329999999886 60.82710999999995,56.0859999999999 C 60.74069999999995,56.06399999999991 64.74094999999994,56.822259999999886 64.67978999999994,56.80308999999991 C 64.01899999999995,56.59596999999991 15.97640999999993,50.1878999999999 16.076989999999938,50.454899999999924 C 16.320379999999943,51.10104999999993 39.19778999999994,0.6078399999999249 39.19778999999994,0.6078399999999249"/><path d="M 61.08411000000001,35.70524 L 66.85848000000001,37.83264"/><path d="M 52.38015999999999,46.18502000000001 C 52.38015999999999,46.18502000000001 51.48573999999999,44.73158000000001 51.06537,44.048490000000015 C 50.678,43.419010000000014 49.94884999999999,42.23413000000002 49.94884999999999,42.23413000000002"/></g>
    <animate attributeName="opacity" dur="0.3s" repeatCount="indefinite"
             keyTimes="0;0.2;0.4;0.6;0.8;1"
             values="0;1;0;0;0;0"
             calcMode="discrete"/>
  </g>

  <!-- フレーム3: コスチューム3 -->
  <g id="frame3" opacity="0">
    <g fill="none" stroke="#000000" stroke-width="2" stroke-linecap="round" stroke-miterlimit="10"><path d="M 163.38302,115.7742 C 163.38302,115.7742 167.63095999999996,111.08733 170.48859999999996,106.03094 C 173.47415999999998,100.74821999999999 175.07016999999996,95.08349 174.83342,94.95795 C 174.46224,94.76113 163.67829,79.72015 152.38918999999999,69.79979999999999 C 144.00453999999996,62.43174999999998 134.50520999999998,59.66499999999998 133.20761,58.50783 C 132.45333999999997,57.83519 121.98345999999998,64.54278000000001 113.86650999999998,72.75518000000001 C 107.33653999999999,79.36194000000002 102.74053999999998,87.76491 102.81779999999998,87.81633000000001 C 103.33064999999996,88.15760000000002 125.41656999999998,97.49768000000002 136.05302999999998,110.77598000000002 C 138.88034,114.30553000000002 137.38138999999995,140.1916 137.29602999999997,140.13801 C 136.70072,139.76425 128.04459999999995,148.04635000000002 128.11975999999999,148.29617000000002 C 128.17311999999998,148.47353000000004 146.08402999999998,146.17653 146.28024999999997,146.12295000000006 C 146.57799999999997,146.04164000000003 130.68766,152.18122000000005 130.64629999999994,152.22578000000004 C 129.48124999999993,153.48092000000008 141.63614999999993,150.88920000000007 141.75369999999992,150.73762000000005 C 142.18060999999994,150.18711000000008 142.4104499999999,154.44794000000007 142.2240999999999,154.45325000000003 C 142.7330599999999,154.64883000000003 160.7604899999999,153.42399000000006 176.6962699999999,149.14112000000006 C 192.46048999999994,144.90436000000005 206.13792999999993,137.61016000000006 206.08433999999988,137.59970000000004 C 205.1773199999999,137.42270000000008 191.79021999999986,144.93858000000006 176.40798999999987,149.09864000000005 C 160.26186999999987,153.46530000000007 142.10733999999985,154.49045000000007 142.11243999999988,154.47530000000006 C 142.25261999999987,154.05831000000006 142.5312499999999,152.2700000000001 142.1018099999999,151.9825800000001 C 141.75358999999986,151.74952000000008 168.50952999999987,146.0281700000001 168.40762999999987,145.83264000000008 C 168.00842999999986,145.06661000000008 129.74660999999986,153.0875200000001 130.1500299999999,152.89944000000008 C 131.5160899999999,152.2625900000001 145.9767799999999,146.0736500000001 146.0142199999999,146.00456000000008 C 146.1084699999999,145.8305900000001 127.68661999999989,148.31092000000012 127.65091999999993,148.25351000000012 C 127.20595999999995,147.53793000000013 130.97428999999994,143.6645600000001 130.93375999999995,143.63074000000012 C 130.60342999999995,143.35502000000008 131.85598999999996,119.6655600000001 131.53576999999996,119.46298000000009 C 131.49228999999997,119.43548000000008 123.36134999999996,113.22460000000008 113.81908999999996,107.68667000000009 C 106.75812999999997,103.58879000000009 98.92440999999997,100.8084700000001 93.02290999999997,96.22845000000008 C 84.63101999999998,89.71568000000009 83.99002999999996,82.62276000000007 84.07721999999995,82.60369000000007 C 83.99610999999996,82.52373000000007 77.19039999999995,85.53078000000006 77.20233999999996,85.26048000000007 C 77.21318999999997,85.01495000000007 81.87874999999997,94.53721000000009 78.93244999999996,99.97825000000007 C 76.16851999999997,105.08248000000007 65.78316999999996,106.11975000000008 65.73244999999997,106.12385000000008 C 65.25357999999997,106.16250000000007 56.02488999999997,115.16412000000007 55.84691999999998,115.22017000000007 C 55.66149999999999,115.27857000000007 55.63281999999998,111.92471000000008 56.14856999999998,108.79830000000005 C 56.75368999999998,105.13014000000005 57.932709999999986,101.59952000000006 57.87368999999998,101.64692000000007 C 56.75655999999998,102.54421000000006 52.62443999999999,92.72543000000006 52.80503999999999,92.77950000000006 C 52.93536,92.81852000000005 44.23428999999999,94.06141000000007 44.14452,94.10659000000005 C 43.30690999999999,94.52806000000005 50.16963000000001,85.11525000000005 50.253829999999994,85.00243000000005 C 50.361580000000004,84.85804000000006 51.75627,76.73734000000003 56.34138999999999,73.47716000000004 C 57.91835999999998,72.35588000000003 63.16248999999999,71.88800000000005 66.91275999999999,73.09136000000005 C 70.68641,74.30222000000005 72.96208999999999,77.18773000000006 73.18707,77.13838000000005 C 73.68244000000001,77.02971000000007 77.4982,74.79161000000006 77.49019000000001,74.83455000000005 C 77.41993000000002,75.21142000000005 77.28799000000001,68.84868000000004 72.61197000000001,62.857100000000045 C 64.00926000000001,51.83407000000004 48.363590000000016,37.62073000000005 48.297000000000025,37.54456000000006 C 48.03134000000003,37.24068000000007 50.22413000000003,35.15589000000007 50.26191000000003,35.12818000000006 C 50.35685000000004,35.05853000000006 20.05913000000004,34.577940000000055 19.37041000000002,34.18750000000007 C 17.72825000000003,33.256550000000075 24.90115000000003,30.71385000000008 30.219730000000027,27.851410000000058 C 34.84378000000004,25.36276000000005 37.77407000000002,22.187070000000062 37.683310000000034,22.616350000000054 C 37.60955000000004,22.96527000000006 47.224830000000026,27.094930000000048 47.186570000000046,27.07360000000004 C 46.76543000000004,26.838770000000054 31.05567000000005,18.46552000000004 31.04731000000004,18.500880000000038 C 30.927760000000035,19.006360000000043 39.32387000000003,23.498790000000042 46.95175000000003,25.511160000000032 C 49.16139000000004,26.094100000000026 32.439010000000025,21.001990000000035 34.28331000000003,21.108190000000036 C 37.46769000000003,21.29155000000003 58.59928000000002,26.351270000000042 58.58108000000004,26.346870000000038 C 58.29504000000003,26.277740000000037 76.17064000000005,47.06648000000003 76.36838000000003,47.22513000000005 C 86.68249000000003,55.50092000000005 83.17195000000004,62.93376000000005 83.03877000000003,63.01001000000004 C 82.88611000000003,63.097400000000036 83.18653000000003,56.735920000000036 83.66026000000002,56.753440000000026 C 84.80686000000003,56.79583000000004 111.91714000000002,26.096560000000025 136.99688000000003,26.18262000000003 C 165.43166000000002,26.280200000000022 200.90568000000002,72.91367000000004 200.75144,72.91337000000003 C 200.46415000000002,72.91281000000002 189.09787999999998,100.91467000000002 188.52454999999998,99.08082000000003 C 188.04715999999996,97.55387000000003 189.79476999999997,95.16702000000002 189.26657,91.94687000000003 C 188.55689,87.62024000000004 185.2403,81.97695000000003 181.17469,76.67831000000002 C 172.48534999999998,65.35366000000003 155.47978,54.30500000000002 152.92363999999998,52.55333000000003 C 137.93332999999996,42.280780000000036 138.16348,35.13660000000003 138.13306,35.128110000000035 C 138.08663,35.115160000000046 143.23183,42.388320000000036 151.89024,50.241770000000045 C 160.54847999999998,58.095070000000035 172.71985,66.52859000000005 180.20002,75.36292000000005 C 190.46889,87.49080000000005 190.28742,96.80615000000004 190.31405999999998,96.87011000000005 C 190.35544,96.96943000000006 177.78949999999998,124.64779000000006 177.78949999999998,124.64779000000006"/><path d="M 180.71314999999998,31.65585 C 180.71314999999998,31.65585 182.87117999999998,23.659220000000005 183.14975999999996,16.49176 C 183.43791999999996,9.078050000000005 181.84558999999996,1.78707 181.76094999999998,1.8562299999999965 C 181.24412999999998,2.278489999999991 174.34693999999996,1.9817899999999895 174.14628,2.4037900000000008 C 173.96744,2.779920000000004 181.45286,2.5262400000000014 182.04811,2.3867699999999985 C 182.48959000000002,2.2833299999999923 190.58177999999998,-0.08849999999999625 190.67431,0.0 C 191.13466,0.440330000000003 192.50705999999997,8.639669999999995 191.12459,18.494559999999993 C 189.98341,26.62945999999998 186.07395000000002,36.78356999999998 186.07395000000002,36.78356999999998"/><path d="M 22.14242999999999,102.64611000000001 C 22.14242999999999,102.64611000000001 21.21011999999999,116.09768000000001 21.21011999999999,120.82621999999999 C 21.21011999999999,125.24433999999998 22.14242999999999,130.14934999999997 22.14242999999999,130.14934999999997"/><path d="M 16.78162999999998,116.39773000000001 C 16.78162999999998,116.39773000000001 16.98700999999997,114.20489000000002 15.020809999999983,116.45102000000001 C 13.175819999999987,118.55868000000002 19.112409999999983,132.24706000000003 19.112409999999983,132.24706000000003"/><path d="M 22.841669999999993,26.675930000000008 C 22.841669999999993,26.675930000000008 14.467150000000004,33.08748000000001 10.745319999999992,36.999200000000016 C 6.860269999999986,41.082470000000015 0.0,50.682990000000004 0.0,50.682990000000004"/><path d="M 57.00877,81.89443000000001 L 55.610299999999995,88.6537"/><path d="M 64.93342999999999,99.14222 L 68.89576,100.30761"/><path d="M 61.43724999999998,87.95447 C 61.43724999999998,87.95447 68.56893999999997,81.49034999999999 69.48159999999999,81.64246000000001 C 70.06683999999998,81.74000000000002 72.96454999999997,83.06572000000001 72.06000999999998,85.14480000000002 C 71.81193999999996,85.71498000000001 67.95551999999998,88.98058000000002 65.80060999999998,89.58810000000001 C 63.05233999999999,90.36291000000001 61.903399999999976,88.42063 61.903399999999976,88.42063"/></g>
    <animate attributeName="opacity" dur="0.3s" repeatCount="indefinite"
             keyTimes="0;0.2;0.4;0.6;0.8;1"
             values="0;0;1;0;0;0"
             calcMode="discrete"/>
  </g>

  <!-- フレーム4: コスチューム4 -->
  <g id="frame4" opacity="0">
  <g fill="none" stroke="#000000" stroke-width="2" stroke-linecap="round" stroke-miterlimit="10"><path d="M 52.86546999999999,138.66339 C 52.86546999999999,138.66339 42.610119999999995,115.99781999999999 42.93777,100.35406 C 43.00307000000001,97.23602 52.76302000000001,69.3109 52.00057000000001,70.13069000000002 C 51.74067000000002,70.41014000000001 59.67706000000001,56.90393 68.67074,48.37184000000002 C 78.51003,39.03754000000001 89.49510999999998,34.57963000000001 89.47061,34.29540000000003 C 89.38573,33.310910000000035 78.94718,39.27795000000003 68.7551,48.91520000000003 C 59.58989,57.58149000000003 50.565830000000005,69.97170000000003 50.440920000000006,70.05200000000002 C 50.33876000000001,70.11767000000003 46.153700000000015,42.849080000000015 59.23516000000001,31.978170000000034 C 60.969660000000005,30.536770000000047 67.29041000000001,23.88503000000003 75.66021,24.06707000000003 C 89.63637,24.371050000000025 107.69548,32.31638000000004 107.71061,31.785000000000025 C 107.72015999999999,31.44977000000003 113.76285000000001,31.922150000000016 114.50358000000003,32.182530000000014 C 114.54539000000003,32.197220000000016 112.62880000000004,24.798040000000015 113.63991000000001,21.335080000000005 C 115.21582000000004,15.93771000000001 119.99449999999999,13.586900000000014 120.29306,13.61864 C 122.44642999999999,13.847499999999997 136.34111,4.375409999999988 137.16117,2.667730000000006 C 137.22988,2.524640000000005 134.49407,18.416410000000013 134.74103,17.837970000000013 C 134.84331,17.598390000000023 140.994,22.283980000000014 141.25199,21.57650000000001 C 141.26721999999998,21.534729999999996 141.89167,18.69735 145.22367,17.47048000000001 C 149.95005,15.730180000000018 157.97117,15.38485 158.87747,14.954250000000002 C 159.11031999999997,14.843620000000016 148.34577,29.04829000000001 149.26381,29.747770000000003 C 149.36391,29.824039999999997 148.46851,42.12288000000001 141.06039,45.580720000000014 C 136.26242,47.82024000000001 130.06363000000002,46.20670000000001 125.24758,44.89682000000002 C 122.46194,44.13918000000001 119.32995000000003,43.685370000000006 119.29200999999998,43.614300000000014 C 119.24126999999996,43.51925000000003 111.67041999999998,42.40996000000001 112.67951999999997,43.000440000000026 C 112.77346999999997,43.05542000000003 120.82266999999999,44.54773000000003 119.91000999999997,43.28569000000002 C 119.89278999999996,43.26188000000002 119.32857999999996,49.92317000000003 119.54349999999997,49.770230000000026 C 120.07458999999997,49.392300000000034 162.37394999999995,57.396450000000016 162.41349999999997,79.68130000000002 C 162.41383999999996,79.87274000000002 162.09874999999997,116.46162000000004 162.67508999999998,116.43321000000003 C 162.88843999999997,116.42270000000002 163.39865,100.71057000000002 157.41621999999998,89.70545000000004 C 150.08048,76.21082000000004 135.89037,66.88566000000003 135.16937,66.51654000000005 C 135.12693999999996,66.49482000000006 116.95156999999998,56.703400000000045 103.27873,64.03261000000006 C 90.02360999999999,71.13790000000006 81.25611999999998,95.37601000000006 81.33696,95.03424000000007 C 81.13877,94.60333000000006 120.31097000000003,129.05709000000007 121.51041999999998,129.07621000000006 C 121.62638999999999,129.07806000000005 95.39712999999998,106.71113000000005 95.68090999999998,106.39138000000005 C 96.06414999999998,105.95956000000007 120.16108999999997,138.90337000000005 120.10574999999997,138.37383000000005 C 120.08321999999995,138.15825000000007 111.42176999999998,124.80046000000004 101.18257999999997,113.52470000000005 C 96.93042999999997,108.84208000000007 76.54446999999996,92.14571000000007 76.75018999999998,92.60801000000006 C 76.89055999999997,92.92344000000006 84.16861999999998,104.92894000000007 84.16861999999998,104.92894000000007"/><path d="M 51.83051999999998,107.74570999999997 C 51.83051999999998,107.74570999999997 64.83218999999997,119.17860999999996 64.15319999999997,119.03572999999997 C 63.988669999999956,119.00110999999998 66.74133999999998,119.80605999999997 68.15412999999998,119.33536999999998 C 69.89172999999997,118.75646999999998 70.38156999999998,116.87118999999998 70.39685999999998,116.69895 C 70.43409999999997,116.27949000000001 107.09472999999997,137.78197 106.85740999999999,137.72787999999997 C 106.58856999999998,137.66659999999996 71.27516999999997,118.94796999999997 72.78467999999998,119.79567999999998 C 73.30519999999999,120.08799999999997 71.88886,138.44104 71.88886,138.44104"/><path d="M 57.60488999999998,51.19512999999998 C 57.60488999999998,51.19512999999998 61.52832999999998,40.680939999999964 64.56195,38.304599999999965 C 67.60656,35.91964999999996 75.83973,36.91116999999997 75.83973,36.91116999999997"/><path d="M 131.06391999999997,28.885549999999995 L 136.53437,25.84640999999999"/><path d="M 145.04396999999997,28.581639999999993 L 145.04396999999997,34.35601"/><path d="M 128.59432999999999,39.98918999999998 C 128.59432999999999,39.98918999999998 132.57012999999998,34.30930999999998 133.00161999999997,34.40519999999998 C 133.24033999999997,34.45824999999999 139.55234,35.43306999999999 139.17400999999998,36.00974999999997 C 139.11267,36.10325999999998 136.52744999999996,42.13290999999998 136.14534999999998,42.29951999999997 C 136.07505,42.33016999999998 128.80727,40.027469999999965 128.80727,40.027469999999965"/><path d="M 26.524749999999983,49.24992999999998 C 26.524749999999983,49.24992999999998 7.521709999999985,16.667939999999987 11.966039999999992,11.592539999999985 C 15.874390000000005,7.129219999999975 36.191419999999994,32.583259999999996 36.191419999999994,32.583259999999996"/><path d="M 5.191419999999994,11.916599999999988 C 5.191419999999994,11.916599999999988 -4.494550000000004,3.485459999999989 0.0,0.0 C 10.59047000000001,-8.21275 44.524759999999986,34.249930000000006 44.524759999999986,34.249930000000006"/></g>
    <animate attributeName="opacity" dur="0.3s" repeatCount="indefinite"
             keyTimes="0;0.2;0.4;0.6;0.8;1"
             values="0;0;0;1;0;0"
             calcMode="discrete"/>
  </g>

  <!-- フレーム5: コスチューム5 -->
  <g id="frame5" opacity="0">
    <g fill="none" stroke="#000000" stroke-width="2" stroke-linecap="round" stroke-miterlimit="10"><path d="M 49.71440999999996,159.20728 C 49.71440999999996,159.20728 29.00646999999995,141.05166 23.808979999999963,121.77729 C 17.539969999999954,98.52924999999999 25.55875999999995,73.42618999999999 25.26768999999996,73.60905 C 24.771469999999965,73.92078000000001 -0.12206000000003314,75.75961999999998 0.6643799999999658,75.11654999999999 C 0.8985699999999781,74.92505 15.052129999999977,76.33314999999999 30.447599999999966,71.63207 C 46.87369999999996,66.61627999999999 63.974999999999966,59.01874000000001 64.27741999999998,58.64999 C 64.33109999999999,58.584540000000004 43.904289999999975,68.24953 27.892799999999994,72.39608000000001 C 11.595730000000003,76.6166 -0.2890600000000063,75.31802000000002 0.0,75.02003000000002 C 0.23950999999999567,74.77312 2.8821499999999958,55.27620000000002 7.058179999999993,42.65908000000002 C 10.580219999999997,32.01785000000001 15.770340000000004,27.858090000000004 15.70707999999999,28.256500000000017 C 15.68370999999999,28.403700000000015 2.138080000000002,27.175540000000012 2.18177,28.22290000000001 C 2.1906700000000114,28.43640000000002 -2.4765800000000127,20.297140000000013 10.076940000000008,15.287090000000006 C 20.411370000000005,11.162670000000006 24.361080000000015,16.11447000000001 28.22436000000002,21.37300000000002 C 28.238980000000026,21.362720000000024 27.960920000000016,17.083180000000013 23.343080000000015,14.885970000000015 C 19.763650000000013,13.18283000000001 13.360740000000021,15.81368000000002 9.30182000000002,14.84208000000001 C 4.969460000000026,13.805030000000016 3.098630000000014,9.220890000000011 3.3250100000000202,9.167010000000005 C 3.3909300000000258,9.151319999999998 15.165690000000012,-14.220299999999995 33.12754000000001,0.0 C 33.154950000000014,0.02169999999999561 32.60420000000002,13.431160000000006 29.83596,21.58793 C 29.743899999999996,21.859190000000012 24.88879,27.910359999999997 23.830240000000003,32.46651 C 23.828949999999992,32.47209000000001 20.703280000000007,37.36232000000001 18.31689,43.44630000000001 C 17.697570000000013,45.02522000000002 16.994799999999998,47.75042000000002 16.566840000000013,49.23173 C 14.526160000000004,56.29512 15.594400000000007,60.98195999999999 15.387520000000023,60.873490000000004 C 15.125470000000035,60.736080000000015 24.609010000000012,60.403610000000015 33.59375000000003,58.135700000000014 C 43.56099000000003,55.61978000000002 53.14507000000003,51.15037000000001 53.09047000000004,51.13658000000001 C 52.21148000000005,50.91458 53.348520000000036,48.696950000000015 53.62342000000004,48.687550000000016 C 53.96945000000005,48.67572000000001 66.87931000000003,49.108540000000005 70.48018000000005,45.93499000000003 C 74.53523000000004,42.36115000000004 69.59907000000004,35.27613000000002 69.65059000000005,35.25887000000003 C 70.10985000000005,35.10501000000002 80.75132000000005,26.47326000000004 80.71793000000005,26.346300000000042 C 80.65291000000005,26.09916000000004 63.21046000000004,29.340820000000036 63.55147000000005,28.986360000000047 C 63.83638000000005,28.69022000000004 68.22720000000004,32.18672000000004 68.19533000000004,32.17339000000004 C 68.12835000000004,32.14537000000004 63.40025000000003,27.50851000000003 58.40307000000004,24.75070000000005 C 54.32642000000004,22.50091000000006 49.783990000000045,22.02729000000005 49.805300000000045,22.003070000000065 C 49.89441000000005,21.901790000000062 47.980950000000036,9.672670000000068 49.47213000000005,10.610290000000063 C 50.82768000000004,11.462620000000058 38.45906000000005,20.481310000000065 34.33629000000005,27.607480000000066 C 30.21751000000006,34.72675000000007 34.34521000000004,39.95383000000007 34.38975000000005,40.106160000000074 C 34.42122000000006,40.21378000000007 39.02391000000006,42.92655000000008 40.98561000000004,45.380070000000075 C 42.211610000000036,46.913440000000065 41.44842000000003,48.432600000000065 40.84560000000005,48.88292000000007 C 38.16034000000005,50.888850000000076 26.14333000000005,39.96736000000007 25.72067000000004,40.71085000000008 C 24.33077000000003,43.155770000000075 23.466270000000037,32.87511000000009 22.999000000000052,34.99097000000009 C 21.999460000000056,39.51703000000009 19.411710000000056,39.57752000000008 18.67229000000006,40.97736000000009 C 17.185730000000063,43.791670000000096 18.856040000000064,42.72155000000009 17.023760000000067,48.8514000000001 C 14.437480000000079,57.503730000000104 14.999060000000071,61.74186000000009 14.924530000000061,61.28992000000011 C 14.79896000000005,60.52846000000011 16.015600000000063,52.21615000000011 15.554190000000062,52.629540000000105 C 15.413500000000056,52.7555900000001 29.27347000000006,54.42848000000009 29.41169000000005,53.511880000000104 C 29.441490000000044,53.314260000000104 28.728770000000054,59.02929000000012 28.522460000000052,59.06681000000012 C 28.127460000000042,59.13864000000012 14.995390000000043,59.94675000000012 15.769630000000063,60.93336000000011 C 15.91235000000006,61.11522000000011 24.39184000000006,60.0877900000001 34.18967000000006,57.60953000000012 C 42.95052000000007,55.39356000000012 53.166360000000054,51.71691000000013 52.96002000000007,51.55162000000013 C 52.73838000000006,51.37406000000013 65.69930000000008,53.24474000000012 65.57741000000007,53.740990000000124 C 64.44739000000007,58.34199000000012 56.95368000000008,71.32077000000012 55.37188000000006,83.03124000000011 C 53.651980000000066,95.76398000000012 57.90080000000006,107.1066100000001 58.30090000000007,107.4023600000001 C 58.36114000000006,107.44689000000011 61.47673000000006,110.4949400000001 68.60063000000008,111.3609000000001 C 78.94852000000006,112.6187600000001 95.08984000000007,110.82649000000009 100.43418000000005,101.4726600000001 C 106.03742000000008,91.6656900000001 113.57599000000008,76.00375000000011 113.87494000000007,62.075690000000094 C 114.30871000000005,41.86666000000011 105.69063000000008,24.202640000000088 105.40662000000006,24.155770000000103 C 105.23595000000009,24.127600000000115 113.56383000000008,40.405600000000106 113.76112000000003,39.853160000000116 C 113.78103000000002,39.79742000000013 115.23394000000005,21.642110000000116 114.58449000000005,21.48462000000012 C 114.52675000000002,21.47062000000011 119.44470000000004,33.29906000000011 122.82819000000003,45.074530000000124 C 125.83970000000002,55.555400000000134 127.34469000000004,66.16053000000014 127.52710000000005,65.77414000000013 C 127.55101000000005,65.72350000000014 125.03422000000003,88.90989000000013 122.81518000000003,84.76777000000013 C 122.32558000000003,83.85386000000014 119.77908000000005,91.61323000000013 119.25613000000001,92.06360000000012 C 119.10155,92.19673000000012 123.23673,84.11230000000012 122.95468000000002,84.76390000000012 C 122.71192000000005,85.32471000000012 126.15974000000003,80.51430000000013 126.85828000000001,74.91735000000011 C 127.56563000000003,69.2497900000001 125.52499000000003,62.79095000000012 125.46430000000001,62.74722000000011 C 124.81893,62.282210000000106 113.91668999999999,40.17776000000012 113.97398999999999,39.99677000000011 C 114.02433999999997,39.83773000000011 117.04750999999996,69.25654000000011 116.71734000000001,70.94772000000012 C 116.66407000000001,71.22058000000013 117.95534,93.9443700000001 117.73655,93.44525000000013 C 117.61253000000002,93.16232000000014 111.36100000000002,105.09630000000013 111.82419000000002,105.49116000000012 C 111.8493,105.51256000000012 114.987,105.06162000000012 118.43561000000003,100.99047000000013 C 124.26382000000004,94.11016000000012 131.72248000000005,82.08723000000012 131.94941000000003,82.35818000000012 C 132.04295000000005,82.46987000000013 111.19607000000005,107.96115000000012 111.28336000000004,107.76703000000012 C 111.32214000000002,107.68079000000012 107.29837000000006,114.26166000000012 99.92261000000005,120.03497000000013 C 94.55481000000006,124.23657000000014 87.03539000000004,127.72823000000014 79.85495000000006,129.29139000000012 C 73.48650000000006,130.67778000000013 65.96910000000005,129.56459000000012 60.215550000000064,127.35237000000012 C 53.70372000000006,124.84859000000012 49.338910000000055,121.10559000000012 49.38424000000006,121.09359000000012 C 50.103090000000066,120.9032700000001 35.59653000000006,122.39612000000011 35.62806000000006,122.37027000000012 C 35.72126000000006,122.29384000000013 42.773010000000056,122.66092000000012 41.90245000000007,122.47997000000012 C 41.776530000000065,122.45380000000011 48.49444000000008,133.78358000000011 57.25414000000006,142.73810000000012 C 66.91554000000005,152.6143700000001 78.71437000000006,160.20730000000012 78.71437000000006,160.20730000000012"/><path d="M 40.02643999999995,29.03277 L 46.626439999999945,27.632769999999994"/><path d="M 59.82643999999996,32.23276999999999 L 62.22643999999997,36.23276999999999"/><path d="M 41.95976999999996,40.83277000000001 C 41.95976999999996,40.83277000000001 41.90266999999997,38.28952000000001 41.74419999999995,37.91394 C 41.67635999999996,37.75316000000001 44.08284999999995,39.292129999999986 44.15459999999996,39.32471000000001 C 44.27607999999995,39.37987000000001 50.81060999999997,41.96879000000001 51.05516999999995,42.07056 C 51.79329999999996,42.37772000000001 55.40226999999996,34.95088000000001 55.415059999999954,34.9272 C 55.84092999999996,34.13889 48.37194999999994,33.37701000000001 48.50613999999996,33.30709999999999 C 49.065969999999965,33.01544999999999 44.20369999999997,39.66427999999999 44.186549999999954,39.42429999999999 C 44.15437999999995,38.97391999999999 41.759769999999946,38.032759999999996 41.759769999999946,38.032759999999996"/><path d="M 130.21440999999996,104.70728 C 130.21440999999996,104.70728 140.71440999999996,109.0093 140.71440999999996,112.20728 C 140.71440999999996,115.15566999999999 130.21440999999996,123.20728 130.21440999999996,123.20728"/><path d="M 144.21440999999996,106.20728 C 144.21440999999996,106.20728 154.07574999999994,110.33753999999999 153.74824999999996,112.71195 C 153.40946999999997,115.16811000000001 142.21440999999996,120.70728 142.21440999999996,120.70728"/></g>
    <animate attributeName="opacity" dur="0.3s" repeatCount="indefinite"
             keyTimes="0;0.2;0.4;0.6;0.8;1"
             values="0;0;0;0;1;0"
             calcMode="discrete"/>
  </g>

</svg>
