<?xml version='1.0' encoding='UTF-8'?>
<svg xmlns="http://www.w3.org/2000/svg" xmlns:xlink="http://www.w3.org/1999/xlink" version="1.1" width="12.65719" height="11.46228" viewBox="0 0 12.650329999999968 10.887909999999977"><g><g fill="#000000" stroke="none" stroke-width="0.5" stroke-miterlimit="10"><path d="M 7.9327200000000175,9.907499999999999 C 7.9327200000000175,9.095030000000008 8.10617000000002,7.633980000000008 7.856880000000018,6.89661000000001 C 7.781390000000016,6.673330000000021 7.386160000000018,6.865640000000013 7.150470000000013,6.865640000000013 C 6.495570000000015,6.865640000000013 5.8460500000000195,6.91464000000002 5.196460000000002,6.920270000000016 C 5.44914,7.865370000000013 5.321089999999998,8.938020000000023 5.321089999999998,9.907500000000027 L 5.321089999999998,10.127950000000027 C 5.321089999999998,10.127950000000027 5.321089999999998,10.22920000000002 5.258489999999995,10.306500000000028 C 6.152230000000003,10.251150000000024 7.042939999999987,10.195600000000042 7.932729999999992,10.193800000000039 C 7.932729999999992,10.085380000000043 7.932729999999992,9.969930000000033 7.932729999999992,9.90751000000003 L 7.9327200000000175,9.907499999999999 M 5.1113100000000316,6.391009999999994 C 5.829270000000037,6.393110000000007 7.873250000000041,5.924509999999998 8.317860000000024,6.635599999999982 C 8.681220000000025,7.2167499999999905 8.462460000000021,9.20441999999997 8.462460000000021,9.907489999999996 C 8.462460000000021,10.005740000000003 8.462460000000021,10.103999999999985 8.462460000000021,10.202249999999992 C 9.936820000000012,10.240459999999985 12.281860000000023,10.321949999999987 12.12190000000001,8.493349999999992 C 12.075430000000011,7.962069999999983 11.863790000000023,7.577139999999986 11.697630000000004,7.080680000000001 C 10.671410000000009,4.67974000000001 10.306029999999993,2.1074199999999905 8.253739999999993,0.4155100000000118 C 6.056780000000003,-1.261259999999993 4.78834999999998,2.840030000000013 3.7457299999999805,4.137070000000023 C 3.300629999999984,5.472370000000012 2.163519999999977,6.696620000000024 1.4271999999999707,7.89148000000003 C 0.9968499999999665,8.589830000000035 0.8853499999999599,9.454950000000025 0.5228899999999612,10.19574000000003 C 0.6337799999999731,10.32465000000002 0.8629699999999616,10.19374000000002 1.0330099999999618,10.19374000000002 L 1.14322999999996,10.19374000000002 C 1.14322999999996,10.19374000000002 1.3563899999999478,10.19374000000002 1.400259999999946,10.384960000000007 C 2.567289999999957,10.456420000000008 3.7243399999999554,10.399750000000012 4.875879999999938,10.330000000000013 C 4.791309999999925,10.251670000000018 4.791309999999925,10.127940000000024 4.791309999999925,10.127940000000024 L 4.791309999999925,9.907490000000024 C 4.791309999999925,8.943100000000015 4.951519999999931,7.823790000000031 4.639569999999935,6.90497000000002 C 4.639569999999935,6.90497000000002 4.555809999999923,6.653690000000012 4.807089999999931,6.569930000000028 C 4.826209999999918,6.563560000000024 4.844359999999938,6.559120000000036 4.861579999999918,6.556370000000015 C 4.917809999999918,6.3910000000000196 5.111299999999915,6.3910000000000196 5.111299999999915,6.3910000000000196 L 5.1113100000000316,6.391009999999994 M 0.7829700000000059,10.72566999999998 C 0.4155900000000088,10.72838999999999 0.3132500000000107,10.702149999999989 0.0,10.280599999999993 C 0.6422699999999963,7.8434199999999805 2.512910000000005,6.186369999999982 3.280399999999986,3.883919999999989 C 4.571049999999985,2.2630399999999895 5.882429999999999,-1.9809199999999976 8.582349999999991,0.0 C 10.723860000000002,1.8067700000000002 11.110989999999987,4.374050000000011 12.19280999999998,6.892419999999987 C 12.373419999999982,7.436589999999995 12.610099999999989,7.868989999999997 12.650329999999968,8.455799999999982 C 12.822229999999962,10.962969999999984 9.724909999999966,10.72348999999997 7.977149999999966,10.72348999999997 C 5.6749999999999545,10.72348999999997 3.361809999999963,11.083009999999973 1.0110199999999736,10.887909999999977 C 1.0110199999999736,10.887909999999977 0.8362199999999689,10.873339999999985 0.7829699999999775,10.725659999999976 L 0.7829700000000059,10.72566999999998"/></g></g></svg>