<?xml version='1.0' encoding='UTF-8'?>
<svg xmlns="http://www.w3.org/2000/svg" xmlns:xlink="http://www.w3.org/1999/xlink" version="1.1" width="17.13786" height="14.47712" viewBox="0 0 16.746970000000005 14.462670000000003">
    <g>
        <g 
            fill="#000000"
            stroke="none"
            stroke-width="0.5"
            stroke-miterlimit="10"
            >
            <path d="M 8.516049999999979,14.043399999999991 C 8.465349999999972,14.46266 8.02073999999999,14.462670000000003 8.02073999999999,14.462670000000003 C 4.052869999999984,14.462670000000003 0.008249999999975444,13.777320000000003 0.0,8.849819999999994 C 0.17537999999998988,6.2095899999999915 1.7495600000000024,4.416509999999988 2.7071300000000065,2.022210000000001 C 2.872550000000018,1.6085899999999924 3.163409999999999,0.10926000000000613 3.6560400000000186,0.0 C 4.75669000000002,-0.2441000000000031 6.318770000000029,2.674509999999998 6.524770000000018,3.4551999999999907 C 6.838510000000014,4.271689999999978 9.677700000000016,4.453119999999984 10.47105000000002,3.695449999999994 C 10.992820000000023,3.1971499999999935 11.370010000000008,0.27338000000000306 12.31507000000002,0.27393999999998186 C 13.436530000000033,0.2746099999999956 14.615080000000006,2.87203999999997 15.022790000000015,3.633779999999973 C 15.312570000000022,4.847729999999984 16.238880000000023,4.879139999999978 16.746970000000005,6.176809999999961 C 18.33077,10.221839999999958 14.796300000000002,11.792039999999957 11.62091000000001,13.069319999999948 C 10.579850000000022,13.502909999999957 9.638779999999997,13.975289999999944 8.516050000000007,14.043409999999938 L 8.516049999999979,14.043399999999991 M 7.691019999999952,13.461729999999989 C 7.747079999999954,13.05168999999998 8.185139999999961,13.05168999999998 8.185139999999961,13.05168999999998 L 8.267339999999962,13.05168999999998 C 9.353159999999974,13.059599999999989 10.26156999999995,12.552579999999978 11.242909999999966,12.14352999999997 C 12.149039999999957,11.783319999999975 15.652049999999974,10.51777999999996 15.940799999999967,9.62549999999996 C 16.858469999999954,6.789739999999966 14.546709999999962,6.0680999999999585 14.087989999999962,3.98894999999996 C 13.796649999999971,3.4677999999999543 12.37886999999995,1.839529999999968 12.439269999999965,1.2662199999999473 C 12.486099999999965,0.8217199999999423 12.240999999999957,2.1457899999999483 12.046959999999956,2.5484299999999394 C 11.794059999999945,3.073179999999951 11.595129999999955,4.03171999999995 11.159819999999968,4.420469999999938 C 9.77103999999997,5.660699999999935 6.1691499999999735,5.309889999999939 5.571259999999967,3.7565499999999474 C 5.50312999999997,3.463549999999941 4.400619999999975,1.861049999999949 4.0333799999999655,1.2241899999999362 C 3.9556899999999757,1.5721299999999303 3.7418699999999774,2.1280099999999322 3.635119999999972,2.394849999999934 C 3.342899999999986,3.1252899999999215 3.1923899999999605,3.9018899999999235 2.889809999999983,4.627409999999941 C 2.170049999999975,6.353209999999933 1.1422899999999743,6.749069999999932 0.9994599999999707,8.883129999999937 C 0.9909499999999696,13.067279999999926 4.419379999999961,13.441799999999944 7.69101999999998,13.461749999999938 L 7.691019999999952,13.461729999999989"/>
            <path d="M 5.206899999999962,9.666709999999995 C 4.706899999999962,9.666709999999995 4.706899999999962,9.166709999999995 4.706899999999962,9.166709999999995 L 4.706899999999962,9.00972999999999 C 4.706899999999962,8.070179999999993 4.551689999999951,7.15976999999998 4.5499199999999576,6.223230000000001 C 4.5499199999999576,6.223230000000001 4.5499199999999576,5.723230000000001 5.0499199999999576,5.723230000000001 C 5.5499199999999576,5.723230000000001 5.5499199999999576,6.223230000000001 5.5499199999999576,6.223230000000001 C 5.547939999999954,7.15773999999999 5.706899999999962,8.070519999999988 5.706899999999962,9.00972999999999 L 5.706899999999962,9.166709999999995 C 5.706899999999962,9.166709999999995 5.706899999999962,9.666709999999995 5.206899999999962,9.666709999999995"/>
            <path d="M 10.701399999999978,9.588220000000007 C 10.201399999999978,9.588220000000007 10.201399999999978,9.088220000000007 10.201399999999978,9.088220000000007 L 10.20641999999998,9.08044000000001 C 10.067959999999971,8.107470000000006 10.203449999999975,7.230640000000022 10.201399999999978,6.262480000000011 C 10.201399999999978,6.262480000000011 10.201399999999978,5.762480000000011 10.701399999999978,5.762480000000011 C 11.201399999999978,5.762480000000011 11.201399999999978,6.262480000000011 11.201399999999978,6.262480000000011 C 11.199659999999966,7.185590000000019 11.063889999999986,8.015460000000019 11.196379999999976,8.93902 L 11.201399999999978,9.088220000000007 C 11.201399999999978,9.088220000000007 11.201399999999978,9.588220000000007 10.701399999999978,9.588220000000007"/>
        </g>
        <animateTransform
            attributeName="transform"
            type="rotate"
            from="0 8.3735 7.2313"
            to="360 8.3735 7.2313"
            dur="0.5s"
            repeatCount="indefinite"
        />
    </g>
</svg>
